<?xml version="1.0" encoding="UTF-8" standalone="no"?>
<!-- Created with Inkscape (http://www.inkscape.org/) -->

<svg
   xmlns:dc="http://purl.org/dc/elements/1.1/"
   xmlns:cc="http://creativecommons.org/ns#"
   xmlns:rdf="http://www.w3.org/1999/02/22-rdf-syntax-ns#"
   xmlns:svg="http://www.w3.org/2000/svg"
   xmlns="http://www.w3.org/2000/svg"
   xmlns:sodipodi="http://sodipodi.sourceforge.net/DTD/sodipodi-0.dtd"
   xmlns:inkscape="http://www.inkscape.org/namespaces/inkscape"
   width="617.24084"
   height="260.61053"
   id="svg2"
   version="1.1"
   inkscape:version="0.47pre4 r22446"
   sodipodi:docname="server_concurrency.svg"
   inkscape:export-filename="/home/francesco/tesi/doc/images/server_concurrency.png"
   inkscape:export-xdpi="90"
   inkscape:export-ydpi="90">
  <defs
     id="defs4">
    <inkscape:perspective
       sodipodi:type="inkscape:persp3d"
       inkscape:vp_x="0 : 526.18109 : 1"
       inkscape:vp_y="0 : 1000 : 0"
       inkscape:vp_z="744.09448 : 526.18109 : 1"
       inkscape:persp3d-origin="372.04724 : 350.78739 : 1"
       id="perspective10" />
  </defs>
  <sodipodi:namedview
     id="base"
     pagecolor="#ffffff"
     bordercolor="#666666"
     borderopacity="1.0"
     inkscape:pageopacity="0.0"
     inkscape:pageshadow="2"
     inkscape:zoom="1.7484339"
     inkscape:cx="349.24731"
     inkscape:cy="125.3217"
     inkscape:document-units="px"
     inkscape:current-layer="layer1"
     showgrid="false"
     showguides="true"
     inkscape:guide-bbox="true"
     inkscape:window-width="1400"
     inkscape:window-height="976"
     inkscape:window-x="0"
     inkscape:window-y="25"
     inkscape:window-maximized="1" />
  <metadata
     id="metadata7">
    <rdf:RDF>
      <cc:Work
         rdf:about="">
        <dc:format>image/svg+xml</dc:format>
        <dc:type
           rdf:resource="http://purl.org/dc/dcmitype/StillImage" />
        <dc:title />
      </cc:Work>
    </rdf:RDF>
  </metadata>
  <g
     inkscape:label="Layer 1"
     inkscape:groupmode="layer"
     id="layer1"
     transform="translate(-14.792757,-397.07337)">
    <text
       xml:space="preserve"
       style="font-size:22px;font-style:normal;font-variant:normal;font-weight:normal;font-stretch:normal;fill:#000000;fill-opacity:1;stroke:none;font-family:FreeSerif;-inkscape-font-specification:FreeSerif"
       x="456.4407"
       y="412.93637"
       id="text2832"><tspan
         sodipodi:role="line"
         x="456.4407"
         y="412.93637"
         id="tspan2836">whiteboard_delete</tspan></text>
    <text
       xml:space="preserve"
       style="font-size:18px;font-style:normal;font-variant:normal;font-weight:normal;font-stretch:normal;fill:#000000;fill-opacity:1;stroke:none;font-family:FreeSerif;-inkscape-font-specification:FreeSerif"
       x="518.17798"
       y="439.814"
       id="text2878"><tspan
         sodipodi:role="line"
         id="tspan2880"
         x="518.17798"
         y="439.814">global lock</tspan><tspan
         sodipodi:role="line"
         x="518.17798"
         y="462.314"
         id="tspan2882">check local lock</tspan><tspan
         sodipodi:role="line"
         x="518.17798"
         y="484.814"
         id="tspan2884">local lock</tspan><tspan
         sodipodi:role="line"
         x="518.17798"
         y="507.314"
         id="tspan2886">delete local file</tspan><tspan
         sodipodi:role="line"
         x="518.17798"
         y="529.81396"
         id="tspan2888">local unlock</tspan><tspan
         sodipodi:role="line"
         x="518.17798"
         y="552.31396"
         id="tspan2890">delete local lock</tspan><tspan
         sodipodi:role="line"
         x="518.17798"
         y="574.81396"
         id="tspan2892">global unlock</tspan></text>
    <path
       id="path3684"
       d="m 480.7177,531.60865 17.15821,-17.15821 17.15821,17.15821 -34.31642,0 z"
       style="fill:#87decd;stroke:none" />
    <path
       id="path3686"
       d="m 480.7177,578.22358 17.15821,-17.15821 17.15821,17.15821 -34.31642,0 z"
       style="fill:#ff5555;stroke:none" />
    <path
       id="path3688"
       d="m 480.7177,430.09101 17.15821,17.15821 17.15821,-17.15821 -34.31642,0 z"
       style="fill:#ff5555;stroke:none" />
    <path
       id="path3690"
       d="m 480.7177,472.12684 17.15821,17.15821 17.15821,-17.15821 -34.31642,0 z"
       style="fill:#87decd;stroke:none" />
    <path
       transform="matrix(0.84105301,0,0,0.84105301,386.27644,-95.753408)"
       d="m 142.9851,660.58301 a 10.294928,10.294928 0 1 1 -20.58986,0 10.294928,10.294928 0 1 1 20.58986,0 z"
       sodipodi:ry="10.294928"
       sodipodi:rx="10.294928"
       sodipodi:cy="660.58301"
       sodipodi:cx="132.69017"
       id="path3700"
       style="opacity:0.74180328;color:#000000;fill:none;stroke:#000000;stroke-width:1;stroke-miterlimit:4;stroke-opacity:1;stroke-dasharray:none;marker:none;visibility:visible;display:inline;overflow:visible;enable-background:accumulate"
       sodipodi:type="arc" />
    <path
       transform="matrix(0.84105301,0,0,0.84105301,386.27644,-9.962345)"
       d="m 142.9851,660.58301 a 10.294928,10.294928 0 1 1 -20.58986,0 10.294928,10.294928 0 1 1 20.58986,0 z"
       sodipodi:ry="10.294928"
       sodipodi:rx="10.294928"
       sodipodi:cy="660.58301"
       sodipodi:cx="132.69017"
       id="path3702"
       style="opacity:0.74180328;color:#000000;fill:none;stroke:#000000;stroke-width:1;stroke-miterlimit:4;stroke-opacity:1;stroke-dasharray:none;marker:none;visibility:visible;display:inline;overflow:visible;enable-background:accumulate"
       sodipodi:type="arc" />
    <path
       transform="matrix(0.84105301,0,0,0.84105301,386.27644,-54.861459)"
       d="m 142.9851,660.58301 a 10.294928,10.294928 0 1 1 -20.58986,0 10.294928,10.294928 0 1 1 20.58986,0 z"
       sodipodi:ry="10.294928"
       sodipodi:rx="10.294928"
       sodipodi:cy="660.58301"
       sodipodi:cx="132.69017"
       id="path3704"
       style="opacity:0.74180328;color:#000000;fill:#000000;stroke:#000000;stroke-width:1;stroke-miterlimit:4;stroke-opacity:1;stroke-dasharray:none;marker:none;visibility:visible;display:inline;overflow:visible;enable-background:accumulate"
       sodipodi:type="arc" />
    <g
       id="g2866">
      <text
         id="text2816"
         y="412.93637"
         x="14.330757"
         style="font-size:22px;font-style:normal;font-variant:normal;font-weight:normal;font-stretch:normal;fill:#000000;fill-opacity:1;stroke:none;font-family:FreeSerif;-inkscape-font-specification:FreeSerif"
         xml:space="preserve"><tspan
           id="tspan2820"
           y="412.93637"
           x="14.330757"
           sodipodi:role="line">whiteboard_create</tspan></text>
      <text
         id="text2840"
         y="439.814"
         x="78.355835"
         style="font-size:18px;font-style:normal;font-variant:normal;font-weight:normal;font-stretch:normal;fill:#000000;fill-opacity:1;stroke:none;font-family:FreeSerif;-inkscape-font-specification:FreeSerif"
         xml:space="preserve"><tspan
           id="tspan2844"
           y="439.814"
           x="78.355835"
           sodipodi:role="line">global lock</tspan><tspan
           id="tspan2854"
           y="462.314"
           x="78.355835"
           sodipodi:role="line">check local lock</tspan><tspan
           id="tspan2865"
           y="484.814"
           x="78.355835"
           sodipodi:role="line">create local lock</tspan><tspan
           id="tspan2867"
           y="507.314"
           x="78.355835"
           sodipodi:role="line">local lock</tspan><tspan
           id="tspan2856"
           y="529.81396"
           x="78.355835"
           sodipodi:role="line">write local file</tspan><tspan
           id="tspan2858"
           y="552.31396"
           x="78.355835"
           sodipodi:role="line">local unlock</tspan><tspan
           id="tspan2860"
           y="574.81396"
           x="78.355835"
           sodipodi:role="line">global unlock</tspan></text>
      <path
         style="fill:#ff5555;stroke:none"
         d="m 37.176128,575.9179 17.15821,-17.15821 17.158211,17.15821 -34.316421,0 z"
         id="path3672" />
      <path
         style="fill:#ff5555;stroke:none"
         d="m 37.176128,428.37519 17.15821,17.15821 17.158211,-17.15821 -34.316421,0 z"
         id="path3674" />
      <path
         style="fill:#87decd;stroke:none"
         d="m 37.176128,492.4146 17.15821,17.15821 17.158211,-17.15821 -34.316421,0 z"
         id="path3676" />
      <path
         style="fill:#87decd;stroke:none"
         d="m 37.176128,555.89999 17.15821,-17.15821 17.158211,17.15821 -34.316421,0 z"
         id="path3678" />
      <path
         sodipodi:type="arc"
         style="opacity:0.74180328;color:#000000;fill:none;stroke:#000000;stroke-width:1;stroke-miterlimit:4;stroke-opacity:1;stroke-dasharray:none;marker:none;visibility:visible;display:inline;overflow:visible;enable-background:accumulate"
         id="path3696"
         sodipodi:cx="132.69017"
         sodipodi:cy="660.58301"
         sodipodi:rx="10.294928"
         sodipodi:ry="10.294928"
         d="m 142.9851,660.58301 c 0,5.68573 -4.6092,10.29493 -10.29493,10.29493 -5.68573,0 -10.29493,-4.6092 -10.29493,-10.29493 0,-5.68573 4.6092,-10.29493 10.29493,-10.29493 5.68573,0 10.29493,4.6092 10.29493,10.29493 z"
         transform="matrix(0.84105301,0,0,0.84105301,-57.265129,-96.897288)" />
      <path
         transform="matrix(0.84105301,0,0,0.84105301,-57.265129,-33.429817)"
         d="m 142.9851,660.58301 c 0,5.68573 -4.6092,10.29493 -10.29493,10.29493 -5.68573,0 -10.29493,-4.6092 -10.29493,-10.29493 0,-5.68573 4.6092,-10.29493 10.29493,-10.29493 5.68573,0 10.29493,4.6092 10.29493,10.29493 z"
         sodipodi:ry="10.294928"
         sodipodi:rx="10.294928"
         sodipodi:cy="660.58301"
         sodipodi:cx="132.69017"
         id="path3694"
         style="opacity:0.74180328;color:#000000;fill:#000000;stroke:#000000;stroke-width:1;stroke-miterlimit:4;stroke-opacity:1;stroke-dasharray:none;marker:none;visibility:visible;display:inline;overflow:visible;enable-background:accumulate"
         sodipodi:type="arc" />
      <path
         transform="matrix(0.84105301,0,0,0.84105301,-57.265129,-74.897288)"
         d="m 142.9851,660.58301 c 0,5.68573 -4.6092,10.29493 -10.29493,10.29493 -5.68573,0 -10.29493,-4.6092 -10.29493,-10.29493 0,-5.68573 4.6092,-10.29493 10.29493,-10.29493 5.68573,0 10.29493,4.6092 10.29493,10.29493 z"
         sodipodi:ry="10.294928"
         sodipodi:rx="10.294928"
         sodipodi:cy="660.58301"
         sodipodi:cx="132.69017"
         id="path2869"
         style="opacity:0.74180328;color:#000000;fill:none;stroke:#000000;stroke-width:1;stroke-miterlimit:4;stroke-opacity:1;stroke-dasharray:none;marker:none;visibility:visible;display:inline;overflow:visible;enable-background:accumulate"
         sodipodi:type="arc" />
    </g>
    <g
       id="g2885"
       transform="translate(48.075005,0)">
      <text
         id="text2824"
         y="412.09937"
         x="189.91646"
         style="font-size:22px;font-style:normal;font-variant:normal;font-weight:normal;font-stretch:normal;fill:#000000;fill-opacity:1;stroke:none;font-family:FreeSerif;-inkscape-font-specification:FreeSerif"
         xml:space="preserve"><tspan
           y="412.09937"
           x="189.91646"
           id="tspan2826"
           sodipodi:role="line">file_get</tspan></text>
      <text
         id="text2828"
         y="599.92505"
         x="189.17818"
         style="font-size:22px;font-style:normal;font-variant:normal;font-weight:normal;font-stretch:normal;fill:#000000;fill-opacity:1;stroke:none;font-family:FreeSerif;-inkscape-font-specification:FreeSerif"
         xml:space="preserve"><tspan
           y="599.92505"
           x="189.17818"
           id="tspan2830"
           sodipodi:role="line">file_put</tspan></text>
      <text
         id="text2862"
         y="439.814"
         x="249.36601"
         style="font-size:18px;font-style:normal;font-variant:normal;font-weight:normal;font-stretch:normal;fill:#000000;fill-opacity:1;stroke:none;font-family:FreeSerif;-inkscape-font-specification:FreeSerif"
         xml:space="preserve"><tspan
           y="439.814"
           x="249.36601"
           id="tspan2864"
           sodipodi:role="line">global lock</tspan><tspan
           id="tspan2866"
           y="462.314"
           x="249.36601"
           sodipodi:role="line">check local lock</tspan><tspan
           id="tspan2868"
           y="484.814"
           x="249.36601"
           sodipodi:role="line">local lock</tspan><tspan
           id="tspan2870"
           y="507.314"
           x="249.36601"
           sodipodi:role="line">global unlock</tspan><tspan
           id="tspan2871"
           y="529.81396"
           x="249.36601"
           sodipodi:role="line">read local file</tspan></text>
      <text
         id="text2872"
         y="631.37823"
         x="249.36601"
         style="font-size:18px;font-style:normal;font-variant:normal;font-weight:normal;font-stretch:normal;fill:#000000;fill-opacity:1;stroke:none;font-family:FreeSerif;-inkscape-font-specification:FreeSerif"
         xml:space="preserve"><tspan
           y="631.37823"
           x="249.36601"
           id="tspan2874"
           sodipodi:role="line">write local file</tspan><tspan
           id="tspan2876"
           y="653.87823"
           x="249.36601"
           sodipodi:role="line">local unlock</tspan></text>
      <path
         style="fill:#ff5555;stroke:none"
         d="m 211.0496,510.73461 17.15821,-17.15821 17.15821,17.15821 -34.31642,0 z"
         id="path3680" />
      <path
         style="fill:#87decd;stroke:none"
         d="m 211.0496,657.68389 17.15821,-17.15821 17.15821,17.15821 -34.31642,0 z"
         id="path3682" />
      <path
         style="fill:#ff5555;stroke:none"
         d="m 211.0496,429.51907 17.15821,17.15821 17.15821,-17.15821 -34.31642,0 z"
         id="path3692" />
      <path
         id="path2898"
         d="m 211.0496,470.12684 17.15821,17.15821 17.15821,-17.15821 -34.31642,0 z"
         style="fill:#87decd;stroke:none" />
      <path
         sodipodi:type="arc"
         style="opacity:0.74180328;color:#000000;fill:none;stroke:#000000;stroke-width:1;stroke-miterlimit:4;stroke-opacity:1;stroke-dasharray:none;marker:none;visibility:visible;display:inline;overflow:visible;enable-background:accumulate"
         id="path3698"
         sodipodi:cx="132.69017"
         sodipodi:cy="660.58301"
         sodipodi:rx="10.294928"
         sodipodi:ry="10.294928"
         d="m 142.9851,660.58301 c 0,5.68573 -4.6092,10.29493 -10.29493,10.29493 -5.68573,0 -10.29493,-4.6092 -10.29493,-10.29493 0,-5.68573 4.6092,-10.29493 10.29493,-10.29493 5.68573,0 10.29493,4.6092 10.29493,10.29493 z"
         transform="matrix(0.84105301,0,0,0.84105301,116.60834,-98.61311)" />
      <path
         sodipodi:type="arc"
         style="opacity:0.74180328;color:#000000;fill:#000000;stroke:#000000;stroke-width:1;stroke-miterlimit:4;stroke-opacity:1;stroke-dasharray:none;marker:none;visibility:visible;display:inline;overflow:visible;enable-background:accumulate"
         id="path3706"
         sodipodi:cx="132.69017"
         sodipodi:cy="660.58301"
         sodipodi:rx="10.294928"
         sodipodi:ry="10.294928"
         d="m 142.9851,660.58301 c 0,5.68573 -4.6092,10.29493 -10.29493,10.29493 -5.68573,0 -10.29493,-4.6092 -10.29493,-10.29493 0,-5.68573 4.6092,-10.29493 10.29493,-10.29493 5.68573,0 10.29493,4.6092 10.29493,10.29493 z"
         transform="matrix(0.84105301,0,0,0.84105301,116.60834,70.645425)" />
      <path
         transform="matrix(0.84105301,0,0,0.84105301,116.60834,-29.354575)"
         d="m 142.9851,660.58301 c 0,5.68573 -4.6092,10.29493 -10.29493,10.29493 -5.68573,0 -10.29493,-4.6092 -10.29493,-10.29493 0,-5.68573 4.6092,-10.29493 10.29493,-10.29493 5.68573,0 10.29493,4.6092 10.29493,10.29493 z"
         sodipodi:ry="10.294928"
         sodipodi:rx="10.294928"
         sodipodi:cy="660.58301"
         sodipodi:cx="132.69017"
         id="path2873"
         style="opacity:0.74180328;color:#000000;fill:#000000;stroke:#000000;stroke-width:1;stroke-miterlimit:4;stroke-opacity:1;stroke-dasharray:none;marker:none;visibility:visible;display:inline;overflow:visible;enable-background:accumulate"
         sodipodi:type="arc" />
    </g>
  </g>
</svg>
